<?xml version="1.0" encoding="utf-8"?>
<!-- Generator: Adobe Illustrator 16.0.0, SVG Export Plug-In . SVG Version: 6.00 Build 0)  -->
<!DOCTYPE svg PUBLIC "-//W3C//DTD SVG 1.1//EN" "http://www.w3.org/Graphics/SVG/1.1/DTD/svg11.dtd">
<svg version="1.1" id="Layer_1" xmlns="http://www.w3.org/2000/svg" xmlns:xlink="http://www.w3.org/1999/xlink" x="0px" y="0px"
	 width="124px" height="128px" viewBox="0 0 124 128" enable-background="new 0 0 124 128" xml:space="preserve">
<g>
	<defs>
		<rect id="SVGID_1_" width="124" height="128"/>
	</defs>
	<clipPath id="SVGID_2_">
		<use xlink:href="#SVGID_1_"  overflow="visible"/>
	</clipPath>
	<path clip-path="url(#SVGID_2_)" d="M105.751,87.928c0.002,0.186,0.009,0.364,0.009,0.552c0,0-0.003,0.794-0.144,2.014
		c0.405,0.525,0.851,1.017,1.325,1.477c0.125-0.751,0.205-1.416,0.253-1.963C106.643,89.37,106.149,88.678,105.751,87.928"/>
	<path clip-path="url(#SVGID_2_)" d="M73.919,116.701c-1.799,0.099-3.503,0.658-4.641,0.658h-1.036h-3.523h-1.037
		c-4.192,0-5.819-0.64-9.006-0.744c-4.215,0.122-5.098,4.707-8.275,7.324c0.312,0.084,0.623,0.17,0.937,0.249
		c0.823-0.872,1.492-1.822,2.105-2.701c1.502-2.151,2.445-3.368,4.358-3.368c1.713,0,2.95,0.166,4.26,0.341
		c1.47,0.197,3.136,0.42,5.621,0.42h4.561c0.695,0,1.467-0.149,2.281-0.309c0.895-0.173,1.906-0.37,2.867-0.37
		c1.55,0,2.644,0.502,3.544,1.628c0.438,0.547,0.859,1.095,1.273,1.63c0.495,0.644,0.984,1.278,1.481,1.887
		c0.521-0.16,1.033-0.341,1.548-0.516c-1.011-1.196-2.013-2.572-3.115-3.95C76.887,117.336,75.4,116.799,73.919,116.701"/>
	<path clip-path="url(#SVGID_2_)" d="M33.28,112.039c0-2.238-9.522-12.536-9.864-17.225c-0.204,0.028-0.432,0.046-0.679,0.046
		c-0.163,0-0.336-0.011-0.514-0.03c-0.163,0.018-0.336,0.03-0.523,0.03c-1.712,0-4.319-0.876-5.9-5.622
		c-1.52-4.56-2.28-6.84-2.28-6.84s0-6.08,5.32-6.08h1.036h2.004c0,0,6.84-12.16,12.92-15.2c0,0-6.08-5.321-6.08-10.641
		s2.28-6.08,2.28-6.08s0.102,0.216,0.288,0.552c0.413-0.437,0.749-0.552,0.749-0.552s3.759,8.251,12.761,8.351
		c8.483-0.094,12.245-1.511,18.124-1.511c0.208,0,0.457,0.002,0.73,0.005c0.104-0.001,0.201-0.005,0.307-0.005
		c6.049,0,41.431,0.758,41.792,36.691c-0.702-1.319-1.132-2.796-1.132-4.391h-0.159c0.138,1.409,0.238,2.856,0.255,4.391
		c0.398,0.749,0.891,1.441,1.443,2.079c0.078-0.879,0.084-1.453,0.084-1.529c0-8.688-1.995-16.106-5.929-22.048
		c-3.239-4.891-7.795-8.8-13.542-11.618c-9.044-4.433-18.825-5.095-23.85-5.095c-2.835,0-5.205,0.32-7.711,0.659
		c-2.986,0.404-6.371,0.861-11.29,0.861c-8.048,0-11.502-7.394-11.536-7.469l-0.566-1.246l-1.299,0.433
		c-0.554,0.185-3.319,1.416-3.319,7.522c0,4.232,3.211,8.294,5.156,10.367c-4.995,3.614-9.866,11.442-11.352,13.954H18.84
		c-2.786,0-4.934,1.402-6.048,3.95C12.022,80.51,12,82.211,12,82.398v0.247l0.078,0.234l2.28,6.84
		c1.932,5.796,5.43,6.661,7.343,6.661c0.165,0,0.325-0.007,0.477-0.018c0.898,3.031,3.679,6.934,6.184,10.448
		c1.359,1.908,3.215,4.512,3.398,5.282c-0.013,0.905-0.366,1.692-0.74,2.523c-0.326,0.727-0.646,1.479-0.739,2.308
		c0.49,0.306,0.986,0.602,1.486,0.894c-0.004-0.178-0.006-0.34-0.006-0.459C31.761,115.84,33.28,114.319,33.28,112.039"/>
	<path clip-path="url(#SVGID_2_)" d="M99.402,104.539c1.232-1.483,2.506-3.019,3.545-4.577c1.76-2.64,2.576-5.693,2.958-7.992
		c-0.149-0.145-0.29-0.298-0.433-0.448c-0.341,2.159-1.088,5.101-2.753,7.598c-3.04,4.561-8.36,9.12-8.36,12.92
		c0,1.899,0.379,3.039,0.759,3.988c0.158-0.105,0.321-0.203,0.479-0.311c-0.377-0.92-0.754-1.893-0.754-3.678
		C94.843,110.031,97.16,107.239,99.402,104.539"/>
	<path clip-path="url(#SVGID_2_)" d="M54.676,116.615c-0.28-0.009-0.568-0.016-0.875-0.016c-4.244,0-5.163,4.438-8.17,7.122
		c0.257,0.071,0.512,0.148,0.77,0.218C49.577,121.322,50.46,116.737,54.676,116.615"/>
	<path clip-path="url(#SVGID_2_)" d="M104.46,83.539h0.159c0,1.594,0.43,3.069,1.132,4.389c-0.361-35.932-35.743-36.69-41.792-36.69
		c-0.104,0-0.203,0.004-0.307,0.005C71.025,51.328,101.475,53.089,104.46,83.539"/>
	<path clip-path="url(#SVGID_2_)" d="M43.921,52.758c0.303,0,0.585-0.006,0.877-0.009c-9.001-0.1-12.761-8.351-12.761-8.351
		s-0.335,0.114-0.748,0.551C32.31,46.794,36.207,52.758,43.921,52.758"/>
	<path clip-path="url(#SVGID_2_)" d="M102.719,99.119c1.665-2.497,2.413-5.439,2.754-7.598c-0.313-0.329-0.615-0.668-0.894-1.028
		c-0.252,2.171-0.95,5.706-2.896,8.626c-3.04,4.56-8.36,9.12-8.36,12.92c0,2.262,0.538,3.446,0.974,4.516
		c0.274-0.176,0.552-0.348,0.822-0.527c-0.38-0.949-0.759-2.089-0.759-3.988C94.359,108.239,99.68,103.679,102.719,99.119"/>
	<path clip-path="url(#SVGID_2_)" d="M22.224,94.831c0.177,0.018,0.351,0.03,0.514,0.03c0.247,0,0.475-0.02,0.679-0.047
		c-0.006-0.086-0.016-0.174-0.016-0.256C23.4,94.559,22.936,94.756,22.224,94.831"/>
	<path clip-path="url(#SVGID_2_)" d="M68.241,117.359h1.037c1.137,0,2.841-0.561,4.641-0.657c-0.177-0.013-0.353-0.021-0.528-0.021
		C71.407,116.682,69.485,117.359,68.241,117.359"/>
	<path clip-path="url(#SVGID_2_)" d="M106.158,90.007c-0.049,0.547-0.128,1.212-0.253,1.963c2.349,2.272,5.425,3.692,8.224,3.724
		c0.297-0.519,0.59-1.036,0.87-1.563c-0.253,0.029-0.51,0.049-0.776,0.049C111.674,94.179,108.399,92.589,106.158,90.007"/>
	<path clip-path="url(#SVGID_2_)" d="M109.663,85.818c0,2.302,2.258,4.561,4.56,4.561c2.142,0,3.42-1.278,3.42-3.42h-1.52
		c0,1.296-0.604,1.899-1.9,1.899c-1.478,0-3.04-1.563-3.04-3.04c0-0.186,0.052-4.56,4.561-4.56c1.602,0,2.912,0.587,3.872,1.485
		c0.154-0.535,0.315-1.068,0.457-1.609c-1.146-0.859-2.604-1.396-4.329-1.396C110.934,79.738,109.663,83.716,109.663,85.818"/>
	<path clip-path="url(#SVGID_2_)" d="M36.695,67.977c-1.887,0.204-3.414,2.401-3.414,4.907c0,2.505,1.527,4.377,3.414,4.181
		c1.891-0.197,3.426-2.396,3.426-4.908C40.121,69.643,38.586,67.771,36.695,67.977"/>
	<path clip-path="url(#SVGID_2_)" d="M77.802,58.86c0,0-4.134-0.981-11.72-1.384c-7.587-0.403-12.566,0.093-12.566,0.093
		c-0.629-0.033-1.166,0.449-1.199,1.078c-0.034,0.629,0.449,1.166,1.078,1.199c0,0,3.455-0.577,12.565-0.093
		c9.111,0.484,11.722,1.384,11.722,1.384c0.629,0.033,1.166-0.449,1.198-1.078C78.913,59.43,78.432,58.893,77.802,58.86"/>
	<path clip-path="url(#SVGID_2_)" d="M114.13,95.693c-4.572,8.009-10.924,14.872-18.533,20.024c0.012,0.029,0.023,0.06,0.036,0.089
		c0.232,0.567,0.461,1.161,0.6,1.853c8.492-5.646,15.52-13.323,20.38-22.338c-0.746,0.235-1.54,0.378-2.389,0.378
		C114.192,95.699,114.16,95.693,114.13,95.693"/>
	<path clip-path="url(#SVGID_2_)" d="M82.047,122.557c-0.268,0.095-0.539,0.182-0.809,0.273c0.491,0.581,0.985,1.117,1.494,1.593
		c0.252-0.09,0.505-0.175,0.755-0.267C83,123.674,82.523,123.133,82.047,122.557"/>
	<path clip-path="url(#SVGID_2_)" d="M30.28,116.925C13.304,106.327,2,87.488,2,66C2,32.863,28.862,6,62,6s60,26.863,60,60
		c0,5.229-0.671,10.3-1.928,15.135c0.63,0.472,1.161,1.044,1.593,1.677c1.511-5.351,2.335-10.985,2.335-16.812
		c0-34.187-27.813-62-62-62S0,31.813,0,66c0,22.641,12.205,42.477,30.375,53.299c-0.084-0.616-0.134-1.259-0.134-1.939
		C30.241,117.21,30.265,117.068,30.28,116.925"/>
	<path clip-path="url(#SVGID_2_)" d="M119.614,82.743c-1.154,3.981-2.704,7.793-4.615,11.386c1.028-0.12,1.938-0.48,2.729-0.983
		c1.298-2.655,2.409-5.416,3.323-8.267C120.743,84.08,120.257,83.344,119.614,82.743"/>
	<path clip-path="url(#SVGID_2_)" d="M32.833,118.433c-0.359-0.2-0.713-0.407-1.067-0.614c0.013,0.599,0.078,1.493,0.334,2.474
		c0.409,0.227,0.824,0.441,1.238,0.658C33.016,120.023,32.883,119.132,32.833,118.433"/>
	<path clip-path="url(#SVGID_2_)" d="M62,126c-5.059,0-9.969-0.633-14.662-1.812c-0.537,0.569-1.14,1.105-1.841,1.564
		C50.755,127.207,56.285,128,62,128c6.67,0,13.092-1.072,19.118-3.03c-0.488-0.505-0.961-1.052-1.428-1.624
		C74.097,125.069,68.158,126,62,126"/>
	<path clip-path="url(#SVGID_2_)" d="M83.487,124.156c3.991-1.479,7.784-3.366,11.342-5.597c-0.051-0.763-0.272-1.365-0.533-2.005
		c-3.813,2.44-7.913,4.465-12.248,6.001C82.523,123.133,82.999,123.673,83.487,124.156"/>
	<path clip-path="url(#SVGID_2_)" d="M33.338,120.95c3.187,1.669,6.531,3.078,10.012,4.179c0.888-0.353,1.638-0.834,2.281-1.408
		c-4.503-1.274-8.792-3.055-12.798-5.288C32.883,119.133,33.016,120.023,33.338,120.95"/>
	<path clip-path="url(#SVGID_2_)" d="M47.338,124.188c-0.314-0.078-0.625-0.165-0.937-0.248c-0.693,0.571-1.487,1.057-2.46,1.37
		c0.515,0.157,1.036,0.3,1.556,0.443C46.198,125.294,46.8,124.758,47.338,124.188"/>
	<path clip-path="url(#SVGID_2_)" d="M81.238,122.83c-0.516,0.174-1.027,0.355-1.548,0.516c0.467,0.571,0.939,1.118,1.428,1.624
		c0.541-0.176,1.08-0.356,1.614-0.547C82.224,123.947,81.729,123.412,81.238,122.83"/>
	<path clip-path="url(#SVGID_2_)" d="M31.766,117.818c-0.499-0.292-0.995-0.588-1.486-0.894c-0.015,0.144-0.04,0.285-0.04,0.435
		c0,0.681,0.051,1.323,0.134,1.939c0.57,0.339,1.145,0.672,1.726,0.994C31.845,119.312,31.779,118.418,31.766,117.818"/>
	<path clip-path="url(#SVGID_2_)" d="M95.597,115.718c-0.157,0.105-0.32,0.205-0.479,0.31c0.268,0.667,0.53,1.243,0.666,1.919
		c0.148-0.097,0.3-0.188,0.447-0.287c-0.138-0.692-0.366-1.285-0.599-1.853C95.62,115.777,95.608,115.746,95.597,115.718"/>
	<path clip-path="url(#SVGID_2_)" d="M94.829,118.56c0.321-0.201,0.638-0.406,0.955-0.613c-0.135-0.676-0.399-1.252-0.666-1.919
		c-0.271,0.18-0.548,0.353-0.822,0.527C94.557,117.194,94.779,117.797,94.829,118.56"/>
	<path clip-path="url(#SVGID_2_)" d="M43.35,125.129c0.197,0.062,0.394,0.121,0.591,0.181c0.973-0.313,1.767-0.799,2.46-1.37
		c-0.258-0.068-0.513-0.146-0.77-0.219C44.989,124.295,44.238,124.776,43.35,125.129"/>
	<path clip-path="url(#SVGID_2_)" d="M120.071,81.135c-0.141,0.541-0.302,1.074-0.457,1.608c0.643,0.601,1.129,1.337,1.437,2.137
		c0.219-0.685,0.419-1.375,0.613-2.068C121.232,82.179,120.701,81.606,120.071,81.135"/>
	<path clip-path="url(#SVGID_2_)" d="M114.999,94.13c-0.281,0.526-0.574,1.046-0.87,1.563c0.031,0,0.063,0.005,0.094,0.005
		c0.85,0,1.645-0.143,2.391-0.378c0.386-0.716,0.757-1.441,1.114-2.175C116.937,93.648,116.028,94.009,114.999,94.13"/>
	<path clip-path="url(#SVGID_2_)" fill="#EA4B35" d="M109.963,24c0,13.255-10.745,24-24,24s-24-10.745-24-24s10.745-24,24-24
		S109.963,10.745,109.963,24"/>
	<rect x="84.963" y="44" clip-path="url(#SVGID_2_)" fill="#FFFFFF" width="2" height="4"/>
	<rect x="84.963" clip-path="url(#SVGID_2_)" fill="#FFFFFF" width="2" height="4"/>
	<rect x="61.963" y="23" clip-path="url(#SVGID_2_)" fill="#FFFFFF" width="4" height="2"/>
	<rect x="105.963" y="23" clip-path="url(#SVGID_2_)" fill="#FFFFFF" width="4" height="2"/>
	<rect x="61.963" y="23" clip-path="url(#SVGID_2_)" fill="#FFFFFF" width="4" height="2"/>
	<rect x="105.963" y="23" clip-path="url(#SVGID_2_)" fill="#FFFFFF" width="4" height="2"/>
	
		<rect x="73.81" y="40.964" transform="matrix(0.8619 0.5071 -0.5071 0.8619 32.1204 -32.0032)" clip-path="url(#SVGID_2_)" fill="#FFFFFF" width="2" height="4"/>
	
		<rect x="96.116" y="3.037" transform="matrix(0.8619 0.5071 -0.5071 0.8619 15.9681 -48.5535)" clip-path="url(#SVGID_2_)" fill="#FFFFFF" width="2" height="4"/>
	
		<rect x="65.999" y="10.847" transform="matrix(-0.5072 0.8618 -0.8618 -0.5072 112.0532 -38.3793)" clip-path="url(#SVGID_2_)" fill="#FFFFFF" width="2.001" height="3.999"/>
	
		<rect x="103.926" y="33.153" transform="matrix(-0.5072 0.8618 -0.8618 -0.5072 188.44 -37.4466)" clip-path="url(#SVGID_2_)" fill="#FFFFFF" width="2.001" height="4"/>
	
		<rect x="65.569" y="32.384" transform="matrix(0.4722 0.8815 -0.8815 0.4722 65.4415 -40.5312)" clip-path="url(#SVGID_2_)" fill="#FFFFFF" width="2" height="4"/>
	
		<rect x="104.358" y="11.616" transform="matrix(0.4719 0.8817 -0.8817 0.4719 67.6484 -85.7002)" clip-path="url(#SVGID_2_)" fill="#FFFFFF" width="1.999" height="3.999"/>
	
		<rect x="74.579" y="2.605" transform="matrix(-0.8816 0.472 -0.472 -0.8816 144.3806 -27.0119)" clip-path="url(#SVGID_2_)" fill="#FFFFFF" width="1.999" height="4"/>
	
		<rect x="95.348" y="41.395" transform="matrix(-0.8816 0.472 -0.472 -0.8816 201.7695 36.1696)" clip-path="url(#SVGID_2_)" fill="#FFFFFF" width="1.999" height="3.999"/>
	<path clip-path="url(#SVGID_2_)" fill="#FFFFFF" d="M101.672,16.188c0.271-0.165,0.515-0.186,0.679,0.087s0.077,0.462-0.193,0.628
		L85.121,27.968c-0.27,0.166-0.88-0.352-1.043-0.625c-0.164-0.273-0.334-1.058-0.063-1.223L101.672,16.188z"/>
	<path clip-path="url(#SVGID_2_)" fill="#FFFFFF" d="M74.347,18.168c-0.264-0.175-0.497-0.373-0.324-0.639
		c0.175-0.267,0.432-0.244,0.695-0.069l14.292,8.696c0.264,0.175,0.065,0.953-0.108,1.22s-0.801,0.761-1.064,0.587L74.347,18.168z"
		/>
</g>
</svg>
