<?xml version="1.0" encoding="utf-8"?>
<!-- Generator: Adobe Illustrator 16.0.0, SVG Export Plug-In . SVG Version: 6.00 Build 0)  -->
<!DOCTYPE svg PUBLIC "-//W3C//DTD SVG 1.1//EN" "http://www.w3.org/Graphics/SVG/1.1/DTD/svg11.dtd">
<svg version="1.1" id="Layer_1" xmlns="http://www.w3.org/2000/svg" xmlns:xlink="http://www.w3.org/1999/xlink" x="0px" y="0px"
	 width="128px" height="130px" viewBox="0 0 128 130" enable-background="new 0 0 128 130" xml:space="preserve">
<polygon points="47.384,100 47.384,93.08 45.969,94.551 44.891,93.416 47.636,90.656 49.275,90.656 49.275,100 "/>
<g>
	<defs>
		<rect id="SVGID_1_" width="128" height="130"/>
	</defs>
	<clipPath id="SVGID_2_">
		<use xlink:href="#SVGID_1_"  overflow="visible"/>
	</clipPath>
	<path clip-path="url(#SVGID_2_)" d="M51.372,95.335c0-2.409,0.994-4.818,3.306-4.818c2.325,0,3.305,2.409,3.305,4.818
		c0,2.396-0.966,4.833-3.305,4.833C52.366,100.168,51.372,97.731,51.372,95.335 M56.078,95.335c0-1.807-0.308-3.151-1.4-3.151
		c-1.079,0-1.387,1.345-1.387,3.151c0,1.793,0.308,3.166,1.387,3.166C55.77,98.501,56.078,97.128,56.078,95.335"/>
	<path clip-path="url(#SVGID_2_)" d="M59.716,97.618c0-1.135,0.826-2.073,1.78-2.437c-0.883-0.322-1.654-1.079-1.654-2.228
		c0-1.709,1.555-2.438,3.096-2.438c1.513,0,3.096,0.729,3.096,2.438c0,1.148-0.784,1.905-1.667,2.228
		c0.952,0.363,1.793,1.302,1.793,2.423c0,1.667-1.373,2.563-3.222,2.563C61.075,100.168,59.716,99.271,59.716,97.618 M64.269,97.365
		c0-0.896-0.953-1.357-1.331-1.414c-0.393,0.057-1.331,0.519-1.331,1.414c0,0.743,0.575,1.164,1.331,1.164
		C63.666,98.529,64.269,98.108,64.269,97.365 M64.143,93.262c0-0.686-0.477-1.106-1.205-1.106c-0.742,0-1.219,0.421-1.219,1.106
		c0,0.799,0.855,1.163,1.219,1.247C63.289,94.425,64.143,94.061,64.143,93.262"/>
	<path clip-path="url(#SVGID_2_)" d="M67.864,95.335c0-2.409,0.994-4.818,3.306-4.818c2.325,0,3.306,2.409,3.306,4.818
		c0,2.396-0.966,4.833-3.306,4.833C68.858,100.168,67.864,97.731,67.864,95.335 M72.57,95.335c0-1.807-0.308-3.151-1.4-3.151
		c-1.079,0-1.387,1.345-1.387,3.151c0,1.793,0.308,3.166,1.387,3.166C72.263,98.501,72.57,97.128,72.57,95.335"/>
	<path clip-path="url(#SVGID_2_)" d="M76.586,100v-9.344h3.446c1.919,0,2.886,1.388,2.886,2.984s-0.967,2.983-2.886,2.983h-1.569
		V100H76.586z M80.999,93.641c0-0.813-0.477-1.331-1.191-1.331h-1.345v2.661h1.345C80.522,94.971,80.999,94.452,80.999,93.641"/>
	<path clip-path="url(#SVGID_2_)" d="M98.855,47.995c1.347,0,2.438,1.092,2.438,2.439s-1.092,2.44-2.438,2.44
		c-1.348,0-2.439-1.093-2.439-2.44S97.508,47.995,98.855,47.995 M98.855,45.995c-2.448,0-4.439,1.991-4.439,4.439
		c0,2.448,1.991,4.44,4.439,4.44c2.447,0,4.438-1.992,4.438-4.44C103.294,47.986,101.303,45.995,98.855,45.995"/>
	<path clip-path="url(#SVGID_2_)" d="M117.953,98c-0.391,0.675-0.793,1.342-1.209,2"/>
	<path clip-path="url(#SVGID_2_)" d="M101.433,19.588C116.324,30.506,126,48.12,126,68c0,10.933-2.938,21.173-8.047,30H98.854
		c-7.316,0-8.537-6.098-8.537-6.098h7.318c3.659,0,3.659-3.659,3.659-3.659V77.266H89.098V66.29H84.22C83,66.29,83,63.85,83,63.85
		l6.098-19.514v-3.659C89.098,26.972,97.312,21.481,101.433,19.588 M101.667,17.28l-1.069,0.491
		c-4.059,1.864-13.5,7.828-13.5,22.906v3.354l-6.007,19.223L81,63.545v0.305c0,2.656,1.294,4.44,3.22,4.44h2.878v8.976v2h2h10.197
		v8.978c-0.032,1.092-0.59,1.659-1.659,1.659h-7.318h-2.438l0.478,2.392C88.89,94.959,91.77,100,98.854,100h19.099h1.153
		l0.577-0.998C125.125,89.601,128,78.881,128,68c0-19.67-9.489-38.371-25.386-50.025L101.667,17.28z"/>
	<path clip-path="url(#SVGID_2_)" d="M28.028,85.439c5.389,0,9.757,4.368,9.757,9.757s-4.368,9.757-9.757,9.757h-9.28
		c-4.507-5.755-7.991-12.347-10.165-19.514H28.028 M28.028,83.439H8.583H5.886l0.783,2.581c2.219,7.313,5.753,14.1,10.505,20.166
		l0.6,0.767h0.974h9.28c6.483,0,11.757-5.273,11.757-11.757S34.511,83.439,28.028,83.439"/>
	<path clip-path="url(#SVGID_2_)" d="M66,8c12.456,0,24.024,3.797,33.614,10.295c-4.764,2.517-12.517,8.711-12.517,22.382v3.354
		l-6.007,19.223L81,63.545v0.305c0,2.656,1.294,4.44,3.22,4.44h2.878v8.976v2h2h10.196v8.978c-0.031,1.092-0.589,1.659-1.659,1.659
		h-7.316h-2.44l0.479,2.392C88.89,94.959,91.77,100,98.855,100h17.889C106.115,116.82,87.369,128,66,128
		c-18.056,0-34.237-7.987-45.236-20.607h7.264c6.725,0,12.197-5.472,12.197-12.196C40.225,88.471,34.753,83,28.028,83H7.89
		C6.656,78.206,6,73.18,6,68C6,34.863,32.863,8,66,8 M66,6C31.813,6,4,33.813,4,68c0,5.247,0.657,10.462,1.954,15.498L6.34,85h1.55
		h20.138c5.623,0,10.197,4.574,10.197,10.196c0,5.623-4.574,10.196-10.197,10.196h-7.264h-4.396l2.888,3.314
		C31.05,122.239,48.088,130,66,130c21.385,0,40.987-10.816,52.435-28.932L120.374,98h-3.63H98.855c-5.788,0-8.115-3.989-8.537-6.098
		h7.316c2.16,0,3.596-1.414,3.659-3.602v-0.028v-0.029v-8.978v-2h-2H89.098V68.29v-2h-2H84.22c-0.838,0-1.22-1.265-1.22-2.44
		l6.007-19.222l0.091-0.292v-0.305v-3.354c0-12.671,7.175-18.354,11.45-20.614l2.945-1.556l-2.757-1.868C90.463,9.679,78.452,6,66,6
		"/>
	<path clip-path="url(#SVGID_2_)" d="M40.225,95.196C40.225,88.472,34.753,83,28.029,83H7.891c0.211,0.821,0.448,1.632,0.692,2.439
		h19.446c5.388,0,9.757,4.368,9.757,9.757s-4.369,9.757-9.757,9.757h-9.28c0.651,0.831,1.322,1.645,2.015,2.439h7.265
		C34.753,107.393,40.225,101.921,40.225,95.196"/>
	<path clip-path="url(#SVGID_2_)" d="M34.299,95.463c0,4.163-3.375,7.537-7.537,7.537c-4.163,0-7.538-3.374-7.538-7.537
		s3.375-7.537,7.538-7.537C30.924,87.926,34.299,91.3,34.299,95.463"/>
	<path clip-path="url(#SVGID_2_)" d="M0,50.434c0,3.131,2.538,5.669,5.669,5.669h36.227c3.131,0,5.67-2.538,5.67-5.669V28.843
		c0-3.132-2.539-5.67-5.67-5.67H5.669C2.538,23.173,0,25.711,0,28.843V50.434z"/>
	<path clip-path="url(#SVGID_2_)" fill="#EA4B35" d="M35.369,27.261c0,3.131,2.538,5.669,5.669,5.669h26.47
		c3.132,0,5.671-2.538,5.671-5.669V5.67c0-3.132-2.539-5.67-5.671-5.67h-26.47c-3.131,0-5.669,2.538-5.669,5.67V27.261z"/>
	<polyline clip-path="url(#SVGID_2_)" points="40,54 33,61 26.5,54.5 	"/>
	<polyline clip-path="url(#SVGID_2_)" fill="#EA4B35" points="67,30 60,37 53.5,30.5 	"/>
	<path clip-path="url(#SVGID_2_)" fill="#FFFFFF" d="M13.966,45v-5.96c0-1.009-0.486-1.368-1.261-1.368
		c-0.756,0-1.422,0.594-1.763,1.206V45H9.141V32.99h1.801v4.484c0.467-0.703,1.458-1.386,2.538-1.386
		c1.548,0,2.268,0.809,2.268,2.34V45H13.966z"/>
	<path clip-path="url(#SVGID_2_)" fill="#FFFFFF" d="M17.438,40.643c0-2.449,1.297-4.555,3.764-4.555
		c2.467,0,3.762,2.106,3.762,4.555s-1.295,4.573-3.762,4.573C18.734,45.216,17.438,43.092,17.438,40.643 M23.109,40.643
		c0-1.566-0.594-2.971-1.908-2.971c-1.315,0-1.909,1.405-1.909,2.971s0.594,2.989,1.909,2.989
		C22.516,43.632,23.109,42.208,23.109,40.643"/>
	<rect x="26.654" y="32.99" clip-path="url(#SVGID_2_)" fill="#FFFFFF" width="1.801" height="12.01"/>
	<path clip-path="url(#SVGID_2_)" fill="#FFFFFF" d="M35.079,45v-0.882c-0.522,0.72-1.404,1.098-2.286,1.098
		c-1.404,0-2.665-1.044-2.665-2.898c0-1.872,1.261-2.827,2.665-2.827c0.882,0,1.782,0.341,2.286,1.045v-1.261
		c0-1.044-0.612-1.657-1.692-1.657c-0.775,0-1.495,0.306-2.161,0.99l-0.703-1.26c0.883-0.883,2.072-1.26,3.188-1.26
		c1.818,0,3.15,0.846,3.15,2.971V45H35.079z M35.079,43.02v-1.314c-0.342-0.613-0.99-0.973-1.639-0.973
		c-0.935,0-1.511,0.684-1.511,1.621c0,0.936,0.576,1.62,1.511,1.62C34.089,43.974,34.737,43.613,35.079,43.02"/>
	<path clip-path="url(#SVGID_2_)" fill="#FFFFFF" d="M51.383,23v-5.96c0-1.008-0.486-1.368-1.261-1.368
		c-0.756,0-1.422,0.594-1.763,1.206V23h-1.801V10.99h1.801v4.484c0.467-0.703,1.458-1.387,2.538-1.387
		c1.548,0,2.268,0.81,2.268,2.341V23H51.383z"/>
	<path clip-path="url(#SVGID_2_)" fill="#FFFFFF" d="M55.053,12.089c0-0.631,0.522-1.134,1.135-1.134
		c0.612,0,1.116,0.503,1.116,1.134c0,0.612-0.504,1.116-1.116,1.116C55.575,13.205,55.053,12.701,55.053,12.089 M55.287,14.303
		h1.801V23h-1.801V14.303z"/>
	<path clip-path="url(#SVGID_2_)" fill="#FFFFFF" d="M59.121,21.974c0-0.648,0.54-1.206,1.206-1.206s1.206,0.558,1.206,1.206
		c0,0.648-0.54,1.224-1.206,1.224S59.121,22.622,59.121,21.974 M59.571,19.381l-0.343-8.391h2.197l-0.324,8.391H59.571z"/>
</g>
</svg>
