<?xml version="1.0" encoding="utf-8"?>
<!-- Generator: Adobe Illustrator 16.0.0, SVG Export Plug-In . SVG Version: 6.00 Build 0)  -->
<!DOCTYPE svg PUBLIC "-//W3C//DTD SVG 1.1//EN" "http://www.w3.org/Graphics/SVG/1.1/DTD/svg11.dtd">
<svg version="1.1" id="Layer_1" xmlns="http://www.w3.org/2000/svg" xmlns:xlink="http://www.w3.org/1999/xlink" x="0px" y="0px"
	 width="124px" height="132.011px" viewBox="0 0 124 132.011" enable-background="new 0 0 124 132.011" xml:space="preserve">
<g>
	<defs>
		<rect id="SVGID_1_" width="124" height="132.011"/>
	</defs>
	<clipPath id="SVGID_2_">
		<use xlink:href="#SVGID_1_"  overflow="visible"/>
	</clipPath>
	<path clip-path="url(#SVGID_2_)" d="M91,92h6h2h3.058c0.189-0.656,0.353-1.322,0.484-2H99v-6h3.926
		c-0.042-0.675-0.109-1.342-0.209-2H99h-2h-6h-2h-6h-2h-6V62.433c-0.678,0.132-1.344,0.294-2,0.482V82h-6h-2h-6h-2h-0.759
		c-0.099,0.658-0.166,1.325-0.209,2H57v6h-0.584c0.132,0.678,0.296,1.344,0.485,2H57h2h6h2h6h2h6h2h6H91z M91,84h6v6h-6V84z M65,90
		h-6v-6h6V90z M73,90h-6v-6h6V90z M81,90h-6v-6h6V90z M83,84h6v6h-6V84z"/>
	<path clip-path="url(#SVGID_2_)" d="M123.587,55h0.063l-0.245-1.631L123.361,53h-0.013l-0.044-0.298
		c-0.291-1.93-0.683-3.842-1.144-5.702h0.055l-0.328-1.117L121.66,45h-0.033l-0.167-0.566c-1.835-6.22-4.637-12.074-8.313-17.434
		h0.178l-2.537-3.234l-0.056-0.072l-0.166-0.211L107,18.989V19h-0.045l-3.967-3.5c-7.315-6.453-16.13-11.137-25.49-13.546L77,1.825
		V1.822l-0.082-0.018L75,1.31v0.082C70.707,0.475,66.337,0,62,0C46.899,0,32.343,5.505,21.012,15.5L21,15.511v-0.26L19.298,17H19
		v0.275L17.044,19h0.32c-1.447,1.502-2.845,3.099-4.153,4.765L10.673,27h0.18c-3.676,5.36-6.478,11.214-8.313,17.434L2.374,45H2.34
		l-0.228,0.883L1.783,47h0.056c-0.462,1.86-0.853,3.772-1.143,5.702L0.651,53H0.638l-0.042,0.369L0.35,55h0.062
		C0.143,57.392,0,59.747,0,62c0,6.831,1.124,13.554,3.322,20H3.241l0.622,1.575L4.013,84H4.03l0.29,0.733
		c0.627,1.59,1.242,3.001,1.881,4.315L6.663,90H6.578l0.524,0.904L10,95.729C21.388,113.242,41.022,124,62,124
		c13.416,0,26.28-4.404,36.794-12.156l-1.403-1.403C87.472,117.707,75.239,122,62,122c-22.205,0-41.578-12.071-51.953-30H17h2h6h2h6
		h2h6h2h6h2h3.821c-0.173-0.656-0.316-1.324-0.436-2H51v-6h3.027c0.039-0.675,0.107-1.342,0.198-2H51h-2h-6h-2h-6V55h6h2h6h2h6h2h6
		h2h6v5.837c0.656-0.173,1.324-0.315,2-0.435V55h6h2h6h2h6h2h6h2h6v27h-6h-2h-0.267c0.091,0.658,0.159,1.325,0.198,2H105v6h-0.427
		c-0.121,0.676-0.264,1.344-0.437,2H105h2h6h0.953c-2.503,4.325-5.535,8.306-8.999,11.861l1.404,1.404
		c3.565-3.646,6.713-7.75,9.326-12.264l0.58-1.002h0.006l0.066-0.126L117.421,90h-0.127c0.861-1.7,1.671-3.456,2.386-5.267
		L119.97,84h0.017l0.151-0.429l0.62-1.571h-0.079c0.966-2.84,1.741-5.784,2.289-8.774L123,73.047v-0.182V71h0.361l0.206-1.77
		C123.854,66.759,124,64.326,124,62C124,59.747,123.857,57.392,123.587,55 M43,84h6v6h-6V84z M113,90h-6v-6h6V90z M121.326,53H115
		v-2v-4h4.541h0.568C120.614,48.963,121.021,50.965,121.326,53 M109,24.727c0.072,0.09,0.144,0.182,0.215,0.273H109V24.727z
		 M103.824,19c1.102,1.071,2.16,2.183,3.176,3.335v2.392V25h-6v-6h0.665H103.824z M77,3.89c9.285,2.39,17.69,6.958,24.665,13.11H101
		h-2h-6h-2h-6h-2h-6V3.89z M99,25h-6v-6h6V25z M91,25h-6v-6h6V25z M77,19h6v6h-6V19z M62,2c4.466,0,8.813,0.503,13,1.429V3.89V17h-6
		h-2h-6h-2h-6h-2h-6h-2h-6h-2h-6h-2h-4.665C32.91,7.671,46.789,2,62,2 M75,25h-6v-6h6V25z M67,25h-6v-6h6V25z M59,25h-6v-6h6V25z
		 M51,25h-6v-6h6V25z M43,25h-6v-6h6V25z M35,25h-6v-6h6V25z M21,20.175V19h1.335H27v6h-6V20.175z M19,20.175V25h-4.215
		C16.105,23.318,17.51,21.706,19,20.175 M3.89,47h0.568H8v6H2.674C2.98,50.965,3.385,48.963,3.89,47 M8,88.175
		C7.338,86.813,6.74,85.417,6.181,84H8V88.175z M17,90h-6.953H10v-1.825V84h7V90z M25,90h-6v-6h6V90z M33,90h-6v-6h6V90z M33,82h-6
		h-2h-6h-2h-7H8H6.181H5.427C3.215,75.743,2,69.015,2,62c0-2.37,0.152-4.702,0.419-7h0.255H8h2h7h2h6h2h6V82z M10,47h7v6h-7V47z
		 M19,47h6v6h-6V47z M33,53h-6v-6h6V53z M41,90h-6v-6h6V90z M41,53h-6v-6h6V53z M49,53h-6v-6h6V53z M57,53h-6v-6h6V53z M65,53h-6v-6
		h6V53z M73,52v1h-6v-6h6V52z M81,53h-6v-1v-5h6V53z M89,53h-6v-6h6V53z M97,53h-6v-6h6V53z M105,53h-6v-6h6V53z M113,51v2h-6v-6h6
		V51z M113,45h-6h-2h-6h-2h-6h-2h-6h-2h-6h-2h-6h-2h-6h-2h-6h-2h-6h-2h-6h-2h-6h-2h-6h-2h-7H8H4.458
		c1.928-6.535,4.937-12.601,8.822-18h1.505H19h2h6h2h6h2h6h2h6h2h6h2h6h2h6h2h6h2h6h2h6h2h6h2h0.215h1.505
		c3.885,5.399,6.895,11.465,8.821,18H115H113z M115.065,90H115v-6h2.819C117.007,86.058,116.09,88.061,115.065,90 M121.58,69H121
		v3.865c-0.573,3.137-1.387,6.188-2.428,9.135h-0.753H115V55h6.326h0.254c0.268,2.298,0.42,4.63,0.42,7S121.848,66.702,121.58,69"/>
	<path clip-path="url(#SVGID_2_)" d="M99.607,111.244c2.122-1.618,4.144-3.376,6.05-5.264l-1.406-1.406
		c-1.896,1.884-3.92,3.641-6.054,5.26L99.607,111.244z"/>
	<path clip-path="url(#SVGID_2_)" fill="#FFFFFF" d="M90.172,101.808c-1.563-1.563-1.563-4.096,0-5.657
		c0.78-0.781,1.805-1.171,2.828-1.171s2.048,0.39,2.828,1.171l8.423,8.423c0.236-0.235,0.471-0.472,0.704-0.711l-8.42-8.419
		C95.592,94.5,94.336,93.98,93,93.98c-1.335,0-2.592,0.52-3.535,1.464C88.521,96.387,88,97.644,88,98.98
		c0,1.335,0.521,2.591,1.465,3.534l7.926,7.927c0.271-0.199,0.538-0.404,0.806-0.608L90.172,101.808z"/>
	<path clip-path="url(#SVGID_2_)" fill="#FFFFFF" d="M98.197,130c-0.269,0.202-0.535,0.408-0.808,0.607l1.404,1.403
		c0.271-0.2,0.545-0.396,0.813-0.602L98.197,130z"/>
	<path clip-path="url(#SVGID_2_)" fill="#FFFFFF" d="M98,87c0,9.389-7.611,17-17,17s-17-7.611-17-17c0-9.39,7.611-17,17-17
		S98,77.611,98,87"/>
	<path clip-path="url(#SVGID_2_)" fill="#E74C3C" d="M75.979,80.979c-1.104,0-2-0.895-2-2c0-0.876,0.566-1.612,1.352-1.883
		c-0.273-0.069-0.556-0.117-0.852-0.117c-1.934,0-3.5,1.567-3.5,3.5c0,1.934,1.566,3.5,3.5,3.5c1.933,0,3.5-1.566,3.5-3.5
		c0-0.296-0.048-0.578-0.117-0.852C77.592,80.413,76.855,80.979,75.979,80.979"/>
	<path clip-path="url(#SVGID_2_)" fill="#E74C3C" d="M86.979,80.979c-1.104,0-2-0.895-2-2c0-0.876,0.566-1.612,1.352-1.883
		c-0.273-0.069-0.556-0.117-0.852-0.117c-1.934,0-3.5,1.567-3.5,3.5c0,1.934,1.566,3.5,3.5,3.5c1.933,0,3.5-1.566,3.5-3.5
		c0-0.296-0.048-0.578-0.117-0.852C88.592,80.413,87.855,80.979,86.979,80.979"/>
	<path clip-path="url(#SVGID_2_)" fill="#E74C3C" d="M76.061,88.979h8c0,0,1,5-4,5S76.061,88.979,76.061,88.979"/>
	<path clip-path="url(#SVGID_2_)" fill="#E74C3C" d="M79.511,70.979C87.52,70.985,94.006,77.482,94,85.49
		c-0.006,8.009-6.503,14.495-14.511,14.489S64.994,93.476,65,85.468S71.503,70.973,79.511,70.979 M79.519,61.979
		C66.561,61.969,56.01,72.503,56,85.461c-0.01,12.958,10.524,23.508,23.482,23.518S102.99,98.456,103,85.498
		S92.477,61.989,79.519,61.979"/>
	<path clip-path="url(#SVGID_2_)" fill="#E74C3C" d="M91.172,103.829l12.021,12.021c0.781,0.781,1.805,1.172,2.828,1.172
		c1.024,0,2.048-0.391,2.829-1.172c1.562-1.562,1.562-4.095,0-5.656L96.828,98.171C96.048,97.39,95.023,97,94,97
		s-2.048,0.39-2.828,1.171C89.609,99.734,89.609,102.266,91.172,103.829"/>
	<rect x="35" y="7" clip-path="url(#SVGID_2_)" width="2" height="10"/>
</g>
</svg>
